<svg width="240" height="240" viewBox="0 0 240 240" fill="none" xmlns="http://www.w3.org/2000/svg">
<path d="M195 103.711V195C195 200.967 192.629 206.69 188.41 210.91C184.19 215.129 178.467 217.5 172.5 217.5H67.5C61.5326 217.5 55.8097 215.129 51.5901 210.91C47.3705 206.69 45 200.967 45 195V45C45 39.0326 47.3705 33.3097 51.5901 29.0901C55.8097 24.8705 61.5326 22.5 67.5 22.5H113.789C117.766 22.5006 121.58 24.0804 124.392 26.8922L190.608 93.1078C193.42 95.9202 194.999 99.7341 195 103.711Z" stroke="#CCCCCC" stroke-width="32" stroke-linejoin="round"/>
<path d="M120 26.25V82.5C120 86.4782 121.58 90.2936 124.393 93.1066C127.206 95.9196 131.022 97.5 135 97.5H191.25" stroke="#CCCCCC" stroke-width="32" stroke-linecap="round" stroke-linejoin="round"/>
</svg>
