<svg width="208" height="176" viewBox="0 0 208 176" fill="none" xmlns="http://www.w3.org/2000/svg">
<path d="M192 32H107.31L80 4.69C78.5196 3.1978 76.7574 2.01474 74.8158 1.2096C72.8742 0.404452 70.7919 -0.00671068 68.69 4.65555e-06H16C11.7565 4.65555e-06 7.68687 1.68571 4.68629 4.6863C1.68571 7.68688 0 11.7565 0 16V160.62C0.0052919 164.697 1.62738 168.606 4.51054 171.489C7.39371 174.373 11.3026 175.995 15.38 176H192.89C196.896 175.995 200.736 174.401 203.569 171.569C206.401 168.736 207.995 164.896 208 160.89V48C208 43.7565 206.314 39.6869 203.314 36.6863C200.313 33.6857 196.243 32 192 32ZM16 16H68.69L84.69 32H16V16ZM192 160H16V48H192V160Z" fill="#CCCCCC"/>
</svg>
