<svg width="193" height="200" viewBox="0 0 193 200" fill="none" xmlns="http://www.w3.org/2000/svg">
<path d="M2.76 18C1.89936 18.746 1.20792 19.6672 0.731949 20.7019C0.255973 21.7366 0.00642676 22.8611 0 24V192C0 194.122 0.842856 196.157 2.34315 197.657C3.84344 199.157 5.87827 200 8 200C10.1217 200 12.1566 199.157 13.6569 197.657C15.1571 196.157 16 194.122 16 192V147.77C42.79 126.61 65.87 138.02 92.45 151.18C108.85 159.29 126.51 168.03 145.45 168.03C159.38 168.03 173.99 163.28 189.27 150.03C190.131 149.284 190.822 148.363 191.298 147.328C191.774 146.293 192.024 145.169 192.03 144.03V24C192.026 22.4645 191.581 20.9624 190.747 19.6732C189.913 18.3839 188.725 17.362 187.326 16.7294C185.927 16.0967 184.375 15.8802 182.856 16.1055C181.337 16.3308 179.915 16.9885 178.76 18C150.76 42.23 127.04 30.49 99.55 16.88C71.07 2.76 38.78 -13.21 2.76 18ZM176 140.25C149.21 161.41 126.13 149.99 99.55 136.84C74.55 124.49 46.74 110.71 16 128.44V27.79C42.79 6.63 65.87 18.04 92.45 31.19C117.45 43.54 145.27 57.32 176 39.59V140.25Z" fill="#CCCCCC"/>
</svg>
